<svg width="701" height="442" viewBox="0 0 701 442" fill="none" xmlns="http://www.w3.org/2000/svg">
<path d="M411 220.947L410.958 220.904H410.856L197.529 0L90.5544 48.4489L138.28 149C140.94 156.211 138.178 161.91 132.999 163.803L0 163.803L4.99504e-06 278.197H132.999C138.178 280.09 140.94 285.789 138.28 293L90.5544 393.551L197.53 442L410.856 221.096H410.958L411 221.053L410.949 221L411 220.947Z" fill="#D82C25"/>
<path d="M701 220.947L700.958 220.904H700.856L487.01 0L379.775 48.4489L427.617 149C430.283 156.211 427.514 161.91 422.322 163.803L289 163.803L289 278.197H422.322C427.514 280.09 430.283 285.789 427.617 293L379.775 393.551L487.01 442L700.856 221.096H700.958L701 221.053L700.949 221L701 220.947Z" fill="#A8172C"/>
</svg>
